<svg xmlns="http://www.w3.org/2000/svg" width="210" height="210" viewBox="0 0 210 210">
  <g fill="none" fill-rule="evenodd">
    <rect width="210" height="210"/>
    <path fill="#F44336" fill-rule="nonzero" d="M178.095,12.3345455 C173.04975,3.35127273 167.574375,1.69890909 156.426,1.07054545 C145.28925,0.314181818 117.284625,0 93.02325,0 C68.715375,0 40.699125,0.314181818 29.574,1.05890909 C18.448875,1.69890909 12.961875,3.33963636 7.870125,12.3345455 C2.67375,21.3061818 0,36.7592727 0,63.9650909 C0,63.9883636 0,64 0,64 C0,64.0232727 0,64.0349091 0,64.0349091 L0,64.0581818 C0,91.1476364 2.67375,106.717091 7.870125,115.595636 C12.961875,124.578909 18.43725,126.208 29.562375,126.964364 C40.699125,127.616 68.715375,128 93.02325,128 C117.284625,128 145.28925,127.616 156.437625,126.976 C167.586,126.219636 173.061375,124.590545 178.106625,115.607273 C183.3495,106.728727 186,91.1592727 186,64.0698182 C186,64.0698182 186,64.0349091 186,64.0116364 C186,64.0116364 186,63.9883636 186,63.9767273 C186,36.7592727 183.3495,21.3061818 178.095,12.3345455 Z" transform="translate(12 41)"/>
    <g fill="#FFF" fill-rule="nonzero" transform="translate(70 70)">
      <circle cx="10.161" cy="59.839" r="10.161"/>
      <path d="M0,25.4361446 L0,38.1653916 C17.5647289,38.1653916 31.8008735,52.4240964 31.8008735,69.9662651 L44.5301205,69.9662651 C44.5301205,45.3846687 24.5815964,25.4361446 0,25.4361446 Z"/>
      <path d="M0,0 L0,12.729247 C31.6208133,12.729247 57.2593675,38.3678012 57.2593675,69.9886145 L69.9886145,69.9886145 C69.9662651,31.3285843 38.6376807,0 0,0 Z"/>
    </g>
  </g>
</svg>
